<?xml version="1.0" encoding="UTF-8"?>
<svg xmlns="http://www.w3.org/2000/svg" xmlns:xlink="http://www.w3.org/1999/xlink" width="20px" height="20px" viewBox="0 0 20 20" version="1.1">
<g id="surface1">
<path style=" stroke:none;fill-rule:nonzero;fill:rgb(0%,0%,0%);fill-opacity:1;" d="M 4.621094 15.8125 L 12.519531 15.8125 L 12.519531 17.5 L 4.621094 17.5 Z M 14.839844 0.289062 L 16.503906 0 L 17.855469 7.78125 L 16.191406 8.070312 Z M 4.691406 14.4375 L 4.847656 12.757812 L 12.710938 13.484375 L 12.554688 15.160156 Z M 5.164062 10.859375 L 5.601562 9.230469 L 13.226562 11.28125 L 12.789062 12.910156 Z M 6.566406 6.792969 L 7.421875 5.339844 L 14.222656 9.351562 L 13.367188 10.804688 Z M 10.050781 2.597656 L 11.445312 1.644531 L 15.890625 8.171875 L 14.5 9.121094 Z M 10.050781 2.597656 "/>
<path style=" stroke:none;fill-rule:nonzero;fill:rgb(0%,0%,0%);fill-opacity:1;" d="M 13.75 18.75 L 3.75 18.75 L 3.75 12.5 L 2.5 12.5 L 2.5 20 L 15 20 L 15 12.5 L 13.75 12.5 Z M 13.75 18.75 "/>
</g>
</svg>
