<?xml version="1.0" standalone="no"?>
<!DOCTYPE svg PUBLIC "-//W3C//DTD SVG 20010904//EN"
 "http://www.w3.org/TR/2001/REC-SVG-20010904/DTD/svg10.dtd">
<svg version="1.0" xmlns="http://www.w3.org/2000/svg"
 width="24.000000pt" height="24.000000pt" viewBox="0 0 24.000000 24.000000"
 preserveAspectRatio="xMidYMid meet">

<g transform="translate(0.000000,24.000000) scale(0.100000,-0.100000)"
fill="#000000" stroke="none">
<path d="M85 211 c-64 -27 -81 -110 -32 -158 60 -61 162 -19 162 67 0 66 -72
116 -130 91z m83 -39 c6 -14 12 -33 12 -42 0 -9 5 -21 12 -28 9 -9 6 -17 -12
-37 -25 -27 -51 -35 -30 -10 15 18 -2 45 -29 45 -19 0 -41 18 -41 34 0 5 3 6
7 3 3 -4 13 3 21 15 12 16 12 23 4 26 -22 7 -12 19 16 20 20 0 30 -6 40 -26z
m-85 -65 c20 -16 31 -67 15 -67 -26 0 -58 43 -58 80 0 46 12 60 22 25 4 -15
13 -32 21 -38z"/>
</g>
</svg>
